<?xml version="1.0" encoding="UTF-8"?>
<svg version="1.1" xmlns="http://www.w3.org/2000/svg" width="512" height="512">
<path d="M0 0 C6.24504183 5.13502666 11.93365202 10.69954161 17 17 C17.69222656 17.86044922 17.69222656 17.86044922 18.3984375 18.73828125 C21.77178831 23.18497095 26 29.26109305 26 35 C26.94875 34.71125 27.8975 34.4225 28.875 34.125 C51.74783629 27.68565924 74.4852781 29.61897679 95.375 40.93359375 C109.02607532 48.60524318 120.33894539 59.24849423 128 73 C128.84375 76.24609375 128.84375 76.24609375 129 79 C128.484375 79.763125 127.96875 80.52625 127.4375 81.3125 C125.49723061 84.93996017 126.33878806 86.85960786 127.3828125 90.70703125 C128.21148186 93.78569527 128.59668546 96.84070275 129 100 C129.94875 100.103125 130.8975 100.20625 131.875 100.3125 C135 101 135 101 137 104 C139.95535257 116.82241679 136.57043872 131.64628201 133 144 C133.96486328 144.54914063 133.96486328 144.54914063 134.94921875 145.109375 C157.2624143 158.47819401 172.40028819 179.34439983 178.8125 204.5 C184.00484698 229.87450517 179.14963076 255.53799124 164.90234375 277.1875 C151.25111651 296.063271 131.95349195 309.93500752 109 315 C105.33344688 315.51560903 101.69907611 315.85174044 98 316 C97.731875 316.88042969 97.46375 317.76085937 97.1875 318.66796875 C91.73465388 333.96822448 79.03416 343.10794592 65 350 C46.98915325 357.72220783 25.90392077 358.16842618 7.41796875 351.7578125 C4.57383779 350.57246569 1.78752336 349.31152108 -1 348 C-2.66235695 347.32265843 -4.32779184 346.65264239 -6 346 C-18.49542661 366.75133348 -9.74607064 399.41602768 -4.5625 421.375 C0.94670604 443.50041018 9.52437872 464.62269973 24.3125 482.18359375 C26.45239559 485.75503986 26.52724048 487.89976379 26 492 C24.84036255 494.18090057 24.84036255 494.18090057 23 496 C20.35910034 496.50336456 20.35910034 496.50336456 17.11669922 496.50793457 C15.88844421 496.51921387 14.66018921 496.53049316 13.39471436 496.54211426 C12.03136972 496.53433682 10.66802741 496.52614413 9.3046875 496.51757812 C7.87069996 496.52299751 6.43671798 496.53011913 5.00274658 496.53881836 C1.1060144 496.55707694 -2.79029489 496.54997401 -6.68703461 496.53730202 C-10.761583 496.52718734 -14.83609475 496.53656342 -18.91064453 496.54284668 C-25.75364699 496.55012758 -32.59647686 496.54052386 -39.43945312 496.52148438 C-47.35519554 496.49971467 -55.27052589 496.50676574 -63.18625832 496.52879 C-69.97785283 496.54693148 -76.76932316 496.54950849 -83.56093407 496.53903532 C-87.61932507 496.53279345 -91.67752227 496.53198364 -95.73590088 496.54518127 C-99.55111263 496.5567211 -103.36579221 496.54874899 -107.18094635 496.52560425 C-108.58260463 496.52030705 -109.98430756 496.52184825 -111.38594818 496.53065491 C-113.29618246 496.54155217 -115.2065144 496.52547616 -117.11669922 496.50793457 C-118.72168777 496.50567242 -118.72168777 496.50567242 -120.35910034 496.50336456 C-123 496 -123 496 -124.8364563 494.17528534 C-126.60280999 490.87302579 -126.50124478 488.69668024 -126 485 C-124.63157896 482.41520471 -122.85456622 480.25212466 -121 478 C-112.16151054 466.56061935 -106.54663989 454.69446608 -101.78833008 441.05615234 C-98.72518705 432.48579211 -98.72518705 432.48579211 -95 430 C-93.35 430 -91.7 430 -90 430 C-89.01 425.05 -88.02 420.1 -87 415 C-88.32 414.34 -89.64 413.68 -91 413 C-92.65642447 411.34357553 -92.2115966 409.47570254 -92.25 407.1875 C-92.21780829 400.46748101 -91.21418879 393.98803419 -90.06738281 387.38354492 C-87.862936 374.22624392 -88.84206607 362.28976969 -96.01171875 350.7421875 C-97 349 -97 349 -97 347 C-97.65484375 347.32613281 -98.3096875 347.65226562 -98.984375 347.98828125 C-117.79997303 356.99744471 -139.2308879 358.8956205 -159.12597656 352.06933594 C-174.82065615 346.3074332 -188.14870426 337.0936267 -196 322 C-196.70905938 320.01463373 -197.38770774 318.01731074 -198 316 C-198.87785156 315.99613281 -198.87785156 315.99613281 -199.7734375 315.9921875 C-218.90121447 315.13057592 -236.93551209 305.50709146 -251 293 C-251.74636719 292.34773438 -252.49273437 291.69546875 -253.26171875 291.0234375 C-270.64892124 274.81965717 -279.95383546 251.16691618 -281.03125 227.65234375 C-280.81153045 201.97262131 -272.09358668 178.27983792 -254 159.6875 C-247.56749023 153.47137435 -240.63107221 148.61819814 -233 144 C-233.27714844 142.87464844 -233.55429688 141.74929687 -233.83984375 140.58984375 C-239.96828555 114.96947433 -238.75060742 91.77637576 -225.06445312 68.70117188 C-222.41716746 64.47037221 -219.33297362 60.70184027 -216 57 C-215.40960938 56.31679687 -214.81921875 55.63359375 -214.2109375 54.9296875 C-200.9671741 40.5587953 -180.58012122 31.61994598 -161.234375 30.61328125 C-148.95155875 30.2655897 -137.75292036 31.42302424 -126 35 C-125.731875 34.13375 -125.46375 33.2675 -125.1875 32.375 C-118.6983981 13.93228933 -103.10409417 -0.38505381 -85.8125 -8.6875 C-56.94977247 -21.72506846 -25.74230376 -18.2459186 0 0 Z " fill="#129A12" transform="translate(306,16)"/>
<path d="M0 0 C6.24504183 5.13502666 11.93365202 10.69954161 17 17 C17.69222656 17.86044922 17.69222656 17.86044922 18.3984375 18.73828125 C21.77178831 23.18497095 26 29.26109305 26 35 C26.94875 34.71125 27.8975 34.4225 28.875 34.125 C51.74783629 27.68565924 74.4852781 29.61897679 95.375 40.93359375 C109.02607532 48.60524318 120.33894539 59.24849423 128 73 C129.36148929 78.26059008 129.36148929 78.26059008 127.625 81.8125 C126 84 126 84 125 85 C120.9011088 85.47294898 118.78596946 85.59426959 115.4375 83.0625 C112.90369674 79.8790036 110.67447809 76.59116383 108.4453125 73.19140625 C99.29098445 59.31146561 84.67955553 52.13649593 69 48 C68.38366699 47.82726563 67.76733398 47.65453125 67.13232422 47.4765625 C54.81933906 44.7246794 39.46153816 46.50611902 28.0625 51.6875 C24.68489578 53.13504467 22.62932039 53.56456095 19 53 C15.40002325 50.0784804 14.13914664 47.28188248 12.6875 42.9375 C10.25972586 36.3020805 7.10547826 30.73287505 3 25 C2.55140625 24.36578125 2.1028125 23.7315625 1.640625 23.078125 C-5.04356222 14.50663786 -15.04386616 8.10936025 -25 4 C-25.88042969 3.608125 -26.76085937 3.21625 -27.66796875 2.8125 C-42.0716179 -2.66735595 -60.93906661 -2.27207816 -75 4 C-75.88429687 4.37382812 -76.76859375 4.74765625 -77.6796875 5.1328125 C-83.79975828 7.94172037 -88.83560097 11.72292049 -94 16 C-95.03125 16.763125 -96.0625 17.52625 -97.125 18.3125 C-105.45732896 26.1014162 -110.95536236 36.9506996 -114.6875 47.625 C-116 51 -116 51 -119 53 C-125.25634812 53.95205297 -130.08965247 51.60448017 -135.81640625 49.19140625 C-148.25485718 44.53652584 -166.99150803 45.38137661 -179.0078125 50.703125 C-186.20233564 54.0874154 -192.9175813 57.83915989 -199 63 C-199.81210938 63.61359375 -200.62421875 64.2271875 -201.4609375 64.859375 C-212.73182045 74.36159632 -219.29840426 89.64367965 -221 104 C-221.20777338 107.27225925 -221.29007315 110.53401485 -221.3125 113.8125 C-221.32095947 114.97664429 -221.32095947 114.97664429 -221.32958984 116.16430664 C-221.22832719 124.22326944 -219.51479138 131.22945029 -216.3125 138.625 C-212.93939427 147.29004405 -212.93939427 147.29004405 -215 152 C-217.43539161 154.1152757 -220.14595978 155.52100234 -223 157 C-242.75330825 167.78369379 -255.05915032 183.0193541 -262.4375 204.375 C-267.8700813 225.25868914 -263.97177507 247.69070161 -253.18017578 266.11572266 C-242.70701657 282.83724579 -225.86288427 294.1376906 -206.87890625 299.16015625 C-202.74020818 300.05624898 -198.82790331 300.36951519 -194.61328125 300.55859375 C-191.29842733 301.11850181 -189.62702394 301.86712686 -187 304 C-185.35552604 306.5928209 -184.10649407 309.34468963 -182.8125 312.125 C-176.40056882 324.91124785 -167.36687431 331.80255361 -154 337 C-137.77590005 341.76381618 -124.55718379 340.45395524 -109 335 C-107.66974372 334.65459137 -106.33700797 334.31827436 -105 334 C-105.44690186 333.26700684 -105.89380371 332.53401367 -106.35424805 331.77880859 C-109.24438529 327.03577266 -112.13430651 322.29268796 -115.0078125 317.53955078 C-115.39425934 316.90034698 -115.78070618 316.26114319 -116.17886353 315.60256958 C-116.96671812 314.29931442 -117.7544572 312.99598943 -118.54208374 311.69259644 C-120.99449653 307.64073152 -123.4807771 303.61186785 -125.98828125 299.59375 C-127.15919721 297.6877107 -128.32979089 295.78147336 -129.5 293.875 C-130.04487061 293.0195459 -130.58974121 292.1640918 -131.15112305 291.28271484 C-134.58565301 285.62813591 -136.21856837 280.67371924 -136 274 C-134.3638761 267.86453539 -131.19048504 264.39527969 -126 261 C-120.21584892 257.77795611 -114.98749697 256.21314502 -108.375 257.27734375 C-101.13510867 259.48027121 -96.76280629 265.176655 -92.31640625 270.98046875 C-89.53224342 274.60974002 -86.64472925 278.14628406 -83.75 281.6875 C-77.45276031 289.420725 -71.21765587 297.20272345 -65 305 C-62.91715102 298.47586883 -61.86965094 291.84149858 -60.7578125 285.09375 C-60.32740001 282.55068351 -59.89639222 280.00771772 -59.46484375 277.46484375 C-58.79086059 273.4765885 -58.12186677 269.48758791 -57.46435547 265.49658203 C-56.82685523 261.6306094 -56.16746335 257.76850622 -55.5078125 253.90625 C-55.31599396 252.71753296 -55.12417542 251.52881592 -54.92654419 250.30407715 C-53.29384271 240.86774426 -50.89826018 234.71363502 -43 229 C-36.61035201 226.87011734 -29.30912915 227.09485273 -23.0625 229.625 C-18.35601657 232.01667942 -15.37439499 235.25121002 -13 240 C-12.32230943 249.20693857 -13.66516605 258.22570807 -15 267.3125 C-15.38104293 269.93280947 -15.75442202 272.55394202 -16.125 275.17578125 C-16.29257812 276.31958252 -16.46015625 277.46338379 -16.6328125 278.6418457 C-17.01326325 282.12130055 -17.06222912 285.50266796 -17 289 C-16.48614746 288.47043701 -15.97229492 287.94087402 -15.44287109 287.39526367 C-13.09493761 284.98470806 -10.73516115 282.58608238 -8.375 280.1875 C-7.16263672 278.93743164 -7.16263672 278.93743164 -5.92578125 277.66210938 C-0.7362901 272.40933175 3.27493433 268.42057193 10.875 267.5625 C16.29922543 267.81141283 20.58192326 269.84539409 24.61328125 273.4375 C28.1016994 277.52533648 28.93827673 281.62971329 28.6640625 286.93359375 C27.27944996 293.32724577 23.52384248 298.5965956 20 304 C19.0757599 305.45114643 18.15261933 306.90299362 17.23046875 308.35546875 C12.90810435 315.12332298 8.50781648 321.83804444 3.92578125 328.43359375 C2.83039945 329.9837058 2.83039945 329.9837058 3 332 C18.14696719 340.47828031 34.12065704 342.29288216 51 338 C62.07749041 334.46949661 73.60255998 328.04290864 80 318 C81.55144773 314.98595398 83.07192587 311.97594888 84.46582031 308.88623047 C86.13066827 305.29288424 87.41290278 302.80604721 91 301 C94.328125 300.48046875 94.328125 300.48046875 98.25 300.1875 C116.64054008 298.36581554 134.17512309 289.0471104 146.44921875 275.24609375 C161.36020979 256.23394728 165.90721009 235.82619033 164 212 C161.05881227 191.91157156 148.66948786 174.49042309 132.69140625 162.55078125 C128.21980366 159.35644024 123.48604741 156.84685239 118.546875 154.4375 C116 153 116 153 114 150 C114.13129462 143.96044729 116.5388412 138.80231062 118.84375 133.28125 C120.56320873 128.40170496 121.01772879 123.6921879 121.140625 118.5546875 C121.15996094 117.78769531 121.17929687 117.02070313 121.19921875 116.23046875 C121.23323571 114.65260511 121.25131474 113.0743219 121.25390625 111.49609375 C121.39105026 107.21575696 121.63444529 105.46861325 124.35546875 101.98046875 C127 100 127 100 130.0625 99.4375 C133 100 133 100 135.3125 101.3125 C141.1069018 110.54062138 137.35827757 125.65697562 135.1953125 135.7578125 C134.50938295 138.52112868 133.79047031 141.26497274 133 144 C133.96486328 144.54914063 133.96486328 144.54914063 134.94921875 145.109375 C157.2624143 158.47819401 172.40028819 179.34439983 178.8125 204.5 C184.00484698 229.87450517 179.14963076 255.53799124 164.90234375 277.1875 C151.25111651 296.063271 131.95349195 309.93500752 109 315 C105.33344688 315.51560903 101.69907611 315.85174044 98 316 C97.731875 316.88042969 97.46375 317.76085937 97.1875 318.66796875 C91.73465388 333.96822448 79.03416 343.10794592 65 350 C46.98915325 357.72220783 25.90392077 358.16842618 7.41796875 351.7578125 C4.57383779 350.57246569 1.78752336 349.31152108 -1 348 C-2.66235695 347.32265843 -4.32779184 346.65264239 -6 346 C-18.49542661 366.75133348 -9.74607064 399.41602768 -4.5625 421.375 C0.94670604 443.50041018 9.52437872 464.62269973 24.3125 482.18359375 C26.45239559 485.75503986 26.52724048 487.89976379 26 492 C24.84036255 494.18090057 24.84036255 494.18090057 23 496 C20.35910034 496.50336456 20.35910034 496.50336456 17.11669922 496.50793457 C15.88844421 496.51921387 14.66018921 496.53049316 13.39471436 496.54211426 C12.03136972 496.53433682 10.66802741 496.52614413 9.3046875 496.51757812 C7.87069996 496.52299751 6.43671798 496.53011913 5.00274658 496.53881836 C1.1060144 496.55707694 -2.79029489 496.54997401 -6.68703461 496.53730202 C-10.761583 496.52718734 -14.83609475 496.53656342 -18.91064453 496.54284668 C-25.75364699 496.55012758 -32.59647686 496.54052386 -39.43945312 496.52148438 C-47.35519554 496.49971467 -55.27052589 496.50676574 -63.18625832 496.52879 C-69.97785283 496.54693148 -76.76932316 496.54950849 -83.56093407 496.53903532 C-87.61932507 496.53279345 -91.67752227 496.53198364 -95.73590088 496.54518127 C-99.55111263 496.5567211 -103.36579221 496.54874899 -107.18094635 496.52560425 C-108.58260463 496.52030705 -109.98430756 496.52184825 -111.38594818 496.53065491 C-113.29618246 496.54155217 -115.2065144 496.52547616 -117.11669922 496.50793457 C-118.72168777 496.50567242 -118.72168777 496.50567242 -120.35910034 496.50336456 C-123 496 -123 496 -124.8364563 494.17528534 C-126.60280999 490.87302579 -126.50124478 488.69668024 -126 485 C-124.63157896 482.41520471 -122.85456622 480.25212466 -121 478 C-112.16151054 466.56061935 -106.54663989 454.69446608 -101.78833008 441.05615234 C-98.72518705 432.48579211 -98.72518705 432.48579211 -95 430 C-93.35 430 -91.7 430 -90 430 C-89.01 425.05 -88.02 420.1 -87 415 C-88.32 414.34 -89.64 413.68 -91 413 C-92.65642447 411.34357553 -92.2115966 409.47570254 -92.25 407.1875 C-92.21780829 400.46748101 -91.21418879 393.98803419 -90.06738281 387.38354492 C-87.862936 374.22624392 -88.84206607 362.28976969 -96.01171875 350.7421875 C-97 349 -97 349 -97 347 C-97.65484375 347.32613281 -98.3096875 347.65226562 -98.984375 347.98828125 C-117.79997303 356.99744471 -139.2308879 358.8956205 -159.12597656 352.06933594 C-174.82065615 346.3074332 -188.14870426 337.0936267 -196 322 C-196.70905938 320.01463373 -197.38770774 318.01731074 -198 316 C-198.87785156 315.99613281 -198.87785156 315.99613281 -199.7734375 315.9921875 C-218.90121447 315.13057592 -236.93551209 305.50709146 -251 293 C-251.74636719 292.34773438 -252.49273437 291.69546875 -253.26171875 291.0234375 C-270.64892124 274.81965717 -279.95383546 251.16691618 -281.03125 227.65234375 C-280.81153045 201.97262131 -272.09358668 178.27983792 -254 159.6875 C-247.56749023 153.47137435 -240.63107221 148.61819814 -233 144 C-233.27714844 142.87464844 -233.55429688 141.74929687 -233.83984375 140.58984375 C-239.96828555 114.96947433 -238.75060742 91.77637576 -225.06445312 68.70117188 C-222.41716746 64.47037221 -219.33297362 60.70184027 -216 57 C-215.40960938 56.31679687 -214.81921875 55.63359375 -214.2109375 54.9296875 C-200.9671741 40.5587953 -180.58012122 31.61994598 -161.234375 30.61328125 C-148.95155875 30.2655897 -137.75292036 31.42302424 -126 35 C-125.731875 34.13375 -125.46375 33.2675 -125.1875 32.375 C-118.6983981 13.93228933 -103.10409417 -0.38505381 -85.8125 -8.6875 C-56.94977247 -21.72506846 -25.74230376 -18.2459186 0 0 Z " fill="#121518" transform="translate(306,16)"/>
<path d="M0 0 C10.29439088 9.27466348 16.81045401 23.33507986 17.9375 37.0625 C17.32487633 52.57413124 2.46869059 67.06514798 -7.421875 77.7734375 C-8.63509092 79.09960801 -9.84191953 80.43269393 -11.00219727 81.80541992 C-16.6939787 88.507598 -22.94319216 94.6563669 -29.16625977 100.85913086 C-31.12045624 102.8079687 -33.06925147 104.76209272 -35.01757812 106.71679688 C-41.07026459 112.77310753 -47.1218917 118.7444785 -53.6875 124.25 C-54.87927046 125.28323742 -56.06937077 126.31840432 -57.2578125 127.35546875 C-60.42029322 130.09963191 -63.58805862 132.83766542 -66.75585938 135.57568359 C-68.56632193 137.14496471 -70.36991663 138.72175087 -72.171875 140.30078125 C-81.0371041 148.03520226 -90.25898792 155.2171209 -99.6875 162.25 C-100.77853027 163.07250244 -100.77853027 163.07250244 -101.89160156 163.91162109 C-138.63079696 191.55124998 -138.63079696 191.55124998 -159.6875 189.25 C-172.41517605 186.44102411 -184.62248994 178.23636485 -192.203125 167.66015625 C-200.29685558 154.51849371 -203.40215956 139.29806399 -200.22314453 124.01806641 C-197.68625998 115.21922524 -192.99904758 107.82552866 -186.6875 101.25 C-186.07132813 100.60546875 -185.45515625 99.9609375 -184.8203125 99.296875 C-177.59903431 92.40519872 -168.43752283 88.12500439 -158.6875 86.25 C-158.88085938 85.70472656 -159.07421875 85.15945312 -159.2734375 84.59765625 C-160.11544479 82.15916978 -160.91047455 79.70994888 -161.6875 77.25 C-161.90019531 76.58871094 -162.11289063 75.92742187 -162.33203125 75.24609375 C-165.72447841 62.77457936 -164.89084552 48.11106615 -158.9375 36.6875 C-157.87701696 34.8615364 -156.7946198 33.04806927 -155.6875 31.25 C-155.24535156 30.52554688 -154.80320313 29.80109375 -154.34765625 29.0546875 C-147.36895973 18.73835352 -134.80028005 11.47713855 -122.82202148 8.64257812 C-119.3141357 7.99741281 -115.87192186 7.90941537 -112.3125 7.9375 C-111.19669556 7.94487183 -111.19669556 7.94487183 -110.05834961 7.95239258 C-100.8625169 8.14766508 -93.77342157 10.9412541 -85.71875 15.26171875 C-83.76424617 16.3958345 -83.76424617 16.3958345 -81.6875 16.25 C-80.37448112 14.26328126 -80.37448112 14.26328126 -79.0625 11.75 C-72.60036104 0.69880583 -62.73654867 -6.52226363 -50.6875 -10.75 C-31.87672219 -15.58184761 -15.23053193 -11.9547856 0 0 Z " fill="#27A427" transform="translate(276.6875,78.75)"/>
<path d="M0 0 C1.64574566 -0.02688151 3.29161413 -0.04634123 4.9375 -0.0625 C5.85402344 -0.07410156 6.77054687 -0.08570313 7.71484375 -0.09765625 C10 0 10 0 11 1 C10.81506361 9.95963472 9.38646696 18.85128487 8 27.6875 C6.79485617 35.44670505 5.66334992 43.17369613 5 51 C4.89328979 52.24571777 4.89328979 52.24571777 4.78442383 53.51660156 C4.48786117 57.67120371 4.88085473 59.76581792 6.8125 63.5625 C9.33748783 66.08748783 11.67265294 66.60891656 15.1875 66.9375 C22.56351305 66.4477249 26.1821246 62.1237957 31 57 C33.17727464 54.73523622 35.36446185 52.4812311 37.56396484 50.23803711 C39.09425123 48.67331686 40.61052548 47.09475855 42.11181641 45.50219727 C42.81483887 44.77701904 43.51786133 44.05184082 44.2421875 43.3046875 C44.8697998 42.64452637 45.49741211 41.98436523 46.14404297 41.30419922 C48 40 48 40 50.23486328 40.29345703 C50.8173584 40.52661621 51.39985352 40.75977539 52 41 C50.31594788 45.94445537 47.5567206 50.0753508 44.75 54.4375 C44.22567383 55.26080811 43.70134766 56.08411621 43.16113281 56.93237305 C40.84699633 60.56377151 38.52137212 64.18775415 36.1953125 67.81152344 C27.59900842 81.13419264 27.59900842 81.13419264 19.375 94.6875 C18.80523437 95.66074219 18.23546875 96.63398438 17.6484375 97.63671875 C13.29876908 106.5112792 11.37067081 113.97650808 11.625 123.875 C11.64151611 124.96433838 11.65803223 126.05367676 11.67504883 127.17602539 C12.45851309 164.13346143 20.28136954 200.90053198 38.921875 233.09423828 C40.01494254 235.02641337 41.00721632 237.01443263 42 239 C6.36 239 -29.28 239 -66 239 C-64.75805479 236.51610958 -63.47133673 234.05345145 -62.1171875 231.62890625 C-57.65028608 223.58688051 -53.7362708 215.44284151 -50.375 206.875 C-50.02034668 205.9991626 -49.66569336 205.1233252 -49.30029297 204.22094727 C-47.37645771 199.15127608 -46.31675688 195.37816703 -48 190 C-49.32 189.01 -50.64 188.02 -52 187 C-50.515 179.575 -50.515 179.575 -49 172 C-45.535 171.01 -45.535 171.01 -42 170 C-34.19168029 157.05660434 -34.32738657 131.98102312 -37 117.5 C-41.03266418 102.40475707 -51.16694892 89.02824332 -59.234375 75.81640625 C-63.93984667 68.10760127 -68.63086907 60.39040708 -73.27426147 52.64401245 C-74.12972663 51.22026374 -74.9884497 49.79846725 -75.85049438 48.37869263 C-77.05577106 46.39273702 -78.24981959 44.40044103 -79.44140625 42.40625 C-79.80304871 41.81581406 -80.16469116 41.22537811 -80.53729248 40.61705017 C-82.4687087 37.35396105 -83 35.9232282 -83 32 C-75.9907769 28.6301812 -75.9907769 28.6301812 -72 30 C-70.01177467 32.01776805 -68.22669852 34.00544435 -66.4375 36.1875 C-65.9101123 36.8168042 -65.38272461 37.4461084 -64.83935547 38.09448242 C-60.89826058 42.82721512 -57.08077476 47.65488138 -53.30004883 52.51611328 C-49.47851144 57.42296455 -45.56999383 62.25444193 -41.625 67.0625 C-41.04186035 67.77704346 -40.4587207 68.49158691 -39.85791016 69.2277832 C-34.6657682 75.9688336 -34.6657682 75.9688336 -28 81 C-24.36223657 81.27454818 -21.67022818 81.2589518 -18.25 79.9375 C-12.79827931 75.24296274 -12.17092451 67.54890967 -11.09765625 60.80859375 C-10.85190102 59.33689476 -10.85190102 59.33689476 -10.60118103 57.83546448 C-10.07992902 54.70412505 -9.57075492 51.57097264 -9.0625 48.4375 C-8.38968219 44.3523729 -7.71243909 40.26798268 -7.03515625 36.18359375 C-6.86923981 35.17968597 -6.70332336 34.1757782 -6.53237915 33.14144897 C-5.33920031 25.95141518 -4.0981049 18.77104464 -2.80859375 11.59765625 C-2.55856346 10.19053627 -2.55856346 10.19053627 -2.30348206 8.75498962 C-2.14717819 7.89490799 -1.99087433 7.03482635 -1.82983398 6.14868164 C-1.69334946 5.39301407 -1.55686493 4.6373465 -1.41624451 3.85877991 C-1 2 -1 2 0 0 Z " fill="#BD6001" transform="translate(268,259)"/>
<path d="M0 0 C18.1608978 0.81990509 32.98507723 8.69116542 46 21 C48.23487199 23.54045653 50.13776044 26.18037083 52 29 C52.95642201 30.29308256 53.91467535 31.58481314 54.875 32.875 C57 36 57 36 57 38 C59.97 38.33 62.94 38.66 66 39 C68.05362055 44.08940744 69.43179252 48.54520815 70 54 C69.195625 54.45375 68.39125 54.9075 67.5625 55.375 C64.91143428 56.74725665 64.91143428 56.74725665 64 59 C63.81577798 61.85690343 63.67535615 64.70281089 63.5625 67.5625 C63.13946576 76.20375857 61.96488128 83.4971394 58.9375 91.625 C56.68656216 97.66065047 56.68656216 97.66065047 56 104 C58.81568996 107.4556195 61.89722902 109.09543135 65.875 111 C85.12064323 121.13156472 97.37911954 137.99237854 104.4375 158.375 C109.65032982 178.26014825 106.23375869 200.01455918 96.4375 217.84375 C85.06281821 236.59091073 68.56395974 248.23193918 47.5 253.875 C43.57873172 254.83328747 40.03619684 255.1068405 36 255 C38.88513738 252.75600426 41.86138263 250.86822463 45 249 C64.66928543 236.46410876 76.40610875 217.54768474 82 195 C85.86508954 172.6285546 80.57551463 149.82405516 68 131 C58.69671875 117.91072086 46.88021611 109.71123117 33 102 C33.83534875 97.04486311 35.50603467 92.41946254 37.18359375 87.703125 C43.4792589 69.44942131 39.65863882 48.89099848 31.50390625 31.87890625 C25.08870182 20.04846931 16.25815729 11.26920587 5 4 C3.31704059 2.68729166 1.6396721 1.36639342 0 0 Z " fill="#097B09" transform="translate(365,62)"/>
<path d="M0 0 C0.99 0.33 1.98 0.66 3 1 C2.43566757 9.98198185 1.39467661 18.79896322 0 27.6875 C-1.20514383 35.44670505 -2.33665008 43.17369613 -3 51 C-3.10671021 52.24571777 -3.10671021 52.24571777 -3.21557617 53.51660156 C-3.51213883 57.67120371 -3.11914527 59.76581792 -1.1875 63.5625 C1.33748783 66.08748783 3.67265294 66.60891656 7.1875 66.9375 C14.56351305 66.4477249 18.1821246 62.1237957 23 57 C25.17727464 54.73523622 27.36446185 52.4812311 29.56396484 50.23803711 C31.09425123 48.67331686 32.61052548 47.09475855 34.11181641 45.50219727 C34.81483887 44.77701904 35.51786133 44.05184082 36.2421875 43.3046875 C36.8697998 42.64452637 37.49741211 41.98436523 38.14404297 41.30419922 C40 40 40 40 42.23486328 40.29345703 C42.8173584 40.52661621 43.39985352 40.75977539 44 41 C42.31594788 45.94445537 39.5567206 50.0753508 36.75 54.4375 C36.22567383 55.26080811 35.70134766 56.08411621 35.16113281 56.93237305 C32.84699633 60.56377151 30.52137212 64.18775415 28.1953125 67.81152344 C19.59900842 81.13419264 19.59900842 81.13419264 11.375 94.6875 C10.80523437 95.66074219 10.23546875 96.63398438 9.6484375 97.63671875 C5.29876908 106.5112792 3.37067081 113.97650808 3.625 123.875 C3.64151611 124.96433838 3.65803223 126.05367676 3.67504883 127.17602539 C4.45851309 164.13346143 12.28136954 200.90053198 30.921875 233.09423828 C32.01494254 235.02641337 33.00721632 237.01443263 34 239 C-1.64 239 -37.28 239 -74 239 C-73.505 238.01 -73.505 238.01 -73 237 C-44.62 237 -16.24 237 13 237 C11.02 234.03 9.04 231.06 7 228 C2.18507988 220.03086138 -1.50074277 211.61355626 -5 203 C-5.35964844 202.154375 -5.71929687 201.30875 -6.08984375 200.4375 C-17.46755762 171.92467487 -23.3360626 133.57982507 -16.68676758 103.34838867 C-15.39887727 97.46045721 -14.47407403 91.56383102 -13.64453125 85.59765625 C-11.79609543 72.30376349 -9.64389348 59.06140878 -7.5 45.8125 C-7.10530921 43.36265591 -6.7107773 40.91278621 -6.31640625 38.46289062 C-4.24904732 25.63548546 -2.15607687 12.81280384 0 0 Z " fill="#974B01" transform="translate(276,259)"/>
<path d="M0 0 C15.59664386 -1.05739958 29.31473217 6.32631599 41 16 C42.010625 16.7425 43.02125 17.485 44.0625 18.25 C51.83855645 24.86287903 57.07521251 34.73809619 61 44 C61 44.66 61 45.32 61 46 C49.42701206 45.44001671 42.22897326 40.95467371 34.31640625 32.62109375 C30.53200714 28.33891533 27.08975908 23.8280572 23.6953125 19.234375 C20.45491165 15.13114552 16.61768945 11.94447963 12.5 8.75 C11.9539209 8.32533447 11.4078418 7.90066895 10.84521484 7.46313477 C7.39895205 4.85955616 3.91487532 2.81593614 0 1 C0 0.67 0 0.34 0 0 Z " fill="#097A09" transform="translate(259,15)"/>
<path d="M0 0 C0.66 0.33 1.32 0.66 2 1 C-5.27008482 16.72981987 -12.54766037 26.75177781 -29.484375 33.359375 C-39.80166375 36.63998755 -49.22775626 37.13446629 -60 37 C-60 36.67 -60 36.34 -60 36 C-59.23816406 35.99742187 -58.47632813 35.99484375 -57.69140625 35.9921875 C-46.61022352 35.57716193 -40.37896686 31.04979182 -32.85546875 23.2109375 C-28.2318686 17.7015529 -25.12470356 11.8506797 -23 5 C-22.40985107 4.88406494 -21.81970215 4.76812988 -21.21166992 4.64868164 C-18.5365443 4.12197433 -15.86202044 3.59227135 -13.1875 3.0625 C-12.25873047 2.88009766 -11.32996094 2.69769531 -10.37304688 2.50976562 C-9.48037109 2.33251953 -8.58769531 2.15527344 -7.66796875 1.97265625 C-6.84578857 1.81031494 -6.0236084 1.64797363 -5.17651367 1.48071289 C-2.83778735 1.00381086 -2.83778735 1.00381086 0 0 Z " fill="#097A09" transform="translate(391,320)"/>
<path d="M0 0 C0.99 0.33 1.98 0.66 3 1 C4.1875 3.5625 4.1875 3.5625 5 6 C-2.31076591 9.56032571 -9.71829165 12.53430376 -18 12 C-14.33219478 9.14726261 -10.44177249 6.84396438 -6.4375 4.5 C-3.97747243 3.06277972 -3.97747243 3.06277972 -1.875 1.25 C-1.25625 0.8375 -0.6375 0.425 0 0 Z " fill="#008D01" transform="translate(196,344)"/>
</svg>
